<?xml version="1.0" encoding="utf-8"?>
<!-- Generator: Adobe Illustrator 22.1.0, SVG Export Plug-In . SVG Version: 6.00 Build 0)  -->
<svg version="1.1" id="Camada_1" xmlns="http://www.w3.org/2000/svg" xmlns:xlink="http://www.w3.org/1999/xlink" x="0px" y="0px"
	 viewBox="0 0 147.3 39.9" style="enable-background:new 0 0 147.3 39.9;" xml:space="preserve">
<style type="text/css">
	.st0{fill:#FFFFFF;}
</style>
<g>
	<path class="st0" d="M33.2,38V21.5L16.8,38h-14L37.3,3.5h5.7V38H33.2z"/>
	<path class="st0" d="M62.3,3.5h12.3v9.9H62.3c-2,0-3.8,0.7-5.2,2.2c-1.4,1.4-2.2,3.2-2.2,5.2c0,2,0.7,3.8,2.2,5.2
		c1.4,1.4,3.2,2.2,5.2,2.2h12.3V38H62.3c-4.8,0-8.8-1.7-12.2-5.1c-3.4-3.4-5.1-7.4-5.1-12.2c0-4.8,1.7-8.8,5.1-12.2
		C53.5,5.1,57.5,3.5,62.3,3.5z"/>
	<path class="st0" d="M94.4,28.9L87,21.5V38h-9.9V3.5h5.7L94.4,15l11.5-11.5h5.7V38h-9.9V21.5L94.4,28.9z"/>
	<path class="st0" d="M124,28.1h19.7V38h-29.6V3.5h29.6v9.9H124v2.5h17.3v9.9H124V28.1z"/>
</g>
</svg>
